# xmcd
#
# Track frame offsets: 
#        150
#        11877
#        27660
#        45885
#        59385
#        72410
#        104665
#        119652
#        143385
#
# Disc length: 2282 seconds
#
# Revision: 0
# Processed by: cddbd v1.5PL3 Copyright (c) Steve Scherf et al.
# Submitted via: ExactAudioCopy v0.95a3
#
DISCID=8008e809
DTITLE=LONE WOLF and FRIENDS - To Blues Or Not To Blues
DYEAR=1996
DGENRE=Blues
TTITLE0=Dream Of You
TTITLE1=Wild Rose
TTITLE2=Eyes Of The Sparrow
TTITLE3=Stomp
TTITLE4=The Game Of Life
TTITLE5=Mean Mama
TTITLE6=Speedy King
TTITLE7=Alpine Valley
TTITLE8=Shuffle Chef
EXTD=
EXTT0=
EXTT1=
EXTT2=
EXTT3=
EXTT4=
EXTT5=
EXTT6=
EXTT7=
EXTT8=
PLAYORDER=
